name processed_emg_signals
nRows=82
nColumns=7
 
endheader
time	LGLTMED	LRF	LADDLONG	LBF	LTA	LGM
0.1578	-0.0006072094904157	-0.0231513282517949	0.0002442653706574	-0.0002952337487963	0.2477732056716839	0.0005255756290932
0.1678	-0.0004207250082047	-0.0219826828472287	0.0003659491142124	-3.251674710215201e-05	0.2625525670630458	0.0005515910080408
0.1778	-0.0002343483866236	-0.0208249156102768	0.0004873858948847	0.0002278287835013	0.2773363379835359	0.0005776370410881
0.18780000000000002	-4.819489975649148e-05	-0.019678693649598	0.0006084999948039	0.0004856370077544	0.2921146525284878	0.0006036969087092
0.19780000000000003	0.0001376197930071	-0.0185446685321181	0.0007292161358024	0.000740745532479	0.3068776611440614	0.0006297538230705
0.20780000000000004	0.0003229797742647	-0.0174234753831364	0.0008494595962462	0.0009929956723446	0.3216155480036298	0.0006557910589906
0.21780000000000005	0.0005077689963677	-0.0163157320223111	0.0009691563266898	0.0012422327089228	0.3363185483790157	0.0006817919848532
0.22780000000000006	0.0006918714094972	-0.0152220381374997	0.0010882330640051	0.00148830614228	0.3509769659471678	0.0007077400933605
0.23780000000000007	0.0008751710898867	-0.0141429744982132	0.0012066174436685	0.0017310699343766	0.365581189973664	0.0007336190320159
0.24780000000000008	0.0010575523680385	-0.0130791022102586	0.0013242381099172	0.0019703827435645	0.3801217123164066	0.0007594126332256
0.2578000000000001	0.0012388999567786	-0.0120309620129879	0.001441024823518	0.0022061081495073	0.3945891441965518	0.0007851049439204
0.2678000000000001	0.0014190990789994	-0.0109990736204202	0.0015569085669162	0.0024381148678816	0.4089742326886177	0.0008106802545996
0.2778000000000001	0.0015980355949433	-0.009983935107344	0.0016718216465506	0.0026662769542446	0.4232678768867649	0.0008361231277165
0.2878000000000001	0.0017755961288799	-0.0089860223413359	0.0017856977921266	0.0028904739964771	0.4374611437085285	0.0008614184253268
0.2978000000000001	0.0019516681950417	-0.0080057884614677	0.001898472252651	0.0031105912952368	0.4515452833004881	0.000886551335933
0.30780000000000013	0.0021261403226836	-0.0070436634043307	0.0020100818890423	0.0033265200318885	0.4655117440127973	0.0009115074004608
0.31780000000000014	0.0022989021801417	-0.0061000534778658	0.0021204652631413	0.0035381574234115	0.4793521869114622	0.0009362725373075
0.32780000000000015	0.0024698446977711	-0.0051753409833198	0.0022295627229657	0.0037454068638102	0.493058499798669	0.0009608330664036
0.33780000000000016	0.0026388601896507	-0.0042698838854361	0.0023373164840648	0.0039481780515896	0.5066228107120574	0.000985175732231
0.34780000000000016	0.00280584247395	-0.0033840155307464	0.002443670706848	0.0041463871028944	0.5200375008736952	0.0010092877257376
0.3578000000000002	0.0029706869918613	-0.0025180444136238	0.0025485715697638	0.0043399566499767	0.5332952170589214	0.0010331567050934
0.3678000000000002	0.0031332909249959	-0.0016722539896142	0.0026519673382185	0.0045288159247516	0.5463888833543191	0.0010567708152333
0.3778000000000002	0.0032935533111484	-0.0008469025354826	0.0027538084291324	0.0047129008273188	0.55931171227284	0.0010801187061336
0.3878000000000002	0.0034513751583287	-4.222305535380846e-05	0.0028540474710512	0.0048921539794438	0.5720572151927359	0.0011031895497711
0.3978000000000002	0.003606659556958	0.0007415767677403	0.0029526393597519	0.0050665247630826	0.5846192120862131	0.0011259730557153
0.4078000000000002	0.003759311790127	0.001504314575674	0.0030495413092976	0.0052359693441076	0.596991840504628	0.0011484594853047
0.4178000000000002	0.0039092394418035	0.0022458332952561	0.0031447128985025	0.0054004506814626	0.6091695637901442	0.0011706396643668
0.42780000000000024	0.0040563525028724	0.0029660010554123	0.0032381161127682	0.0055599385220415	0.6211471784884187	0.0011925049944467
0.43780000000000024	0.0042005634748832	0.0036647110625206	0.0033297153812517	0.0057144093816426	0.6329198209417263	0.0012140474625191
0.44780000000000025	0.0043417874713701	0.0043418814349586	0.003419477609323	0.0058638465123796	0.644482973046083	0.0012352596491644
0.45780000000000026	0.0044799423166071	0.0049974549979749	0.0035073722062662	0.0060082398569622	0.6558324671595342	0.0012561347351974
0.46780000000000027	0.0046149486416508	0.0056313990400504	0.0035933711081828	0.0061475859902882	0.666964490152289	0.0012766665067392
0.4778000000000003	0.0047467299775143	0.0062437050319593	0.0036774487960595	0.0062818880488226	0.677875586592983	0.0012968493587315
0.4878000000000003	0.0048752128453081	0.0068343883097629	0.003759582308979	0.0064111556482695	0.6885626610686774	0.0013166782968954
0.4978000000000003	0.0050003268431697	0.0074034877229819	0.0038397512524662	0.0065354047900584	0.6990229796388231	0.0013361489381413
0.5078000000000003	0.0051220047297997	0.0079510652492146	0.0039179378019822	0.0066546577571686	0.7092541704253292	0.0013552575094415
0.5178000000000003	0.0052401825044137	0.0084772055765063	0.0039941267015893	0.0067689429998196	0.7192542233427216	0.0013740008451837
0.5278000000000003	0.0053547994829225	0.008982015654834	0.0040683052578148	0.0068782950115527	0.7290214889749305	0.0013923763830283
0.5378000000000003	0.0054657983701562	0.0094656242181274	0.0041404633287529	0.0069827541962315	0.7385546766086327	0.0014103821583029
0.5478000000000003	0.005573125327954	0.0099281812782861	0.0042105933084486	0.0070823667264964	0.7478528514364394	0.0014280167969717
0.5578000000000003	0.0056767300389434	0.0103698575926737	0.0042786901066369	0.0071771843942041	0.7569154309457413	0.001445279507222
0.5678000000000003	0.0057765657658326	0.0107908441065828	0.0043447511239333	0.0072672644533899	0.7657421805105112	0.0014621700697121
0.5778000000000003	0.0058725894060328	0.0111913513721651	0.0044087762226049	0.007352669456276	0.7743332082045663	0.0014786888265267
0.5878000000000003	0.0059647615414331	0.0115716089453309	0.0044707676930693	0.0074334670828441	0.7826889588562876	0.0014948366688858
0.5978000000000003	0.0060530464831558	0.0119318647621172	0.0045307302162823	0.0075097299644732	0.7908102073665815	0.0015106150236559
0.6078000000000003	0.0061374123111389	0.012272384496019	0.0045886708221684	0.0075815355021355	0.7986980513133616	0.0015260258387141
0.6178000000000003	0.0062178309084126	0.0125934508977552	0.0046445988442527	0.0076489656796239	0.8063539028668177	0.0015410715672119
0.6278000000000004	0.0062942779899504	0.0128953631189181	0.0046985258706482	0.0077121068722706	0.8137794800408483	0.0015557551507898
0.6378000000000004	0.0063667331259946	0.0131784360209248	0.0047504656915592	0.0077710496515908	0.820976797308122	0.001570080001793
0.6478000000000004	0.0064351797597763	0.0134429994706662	0.0048004342434685	0.0078258885862685	0.8279481556090623	0.001584049984543
0.6578000000000004	0.0064996052195836	0.0136893976242247	0.004848449550178	0.0078767220398842	0.8346961317876398	0.0015976693957224
0.6678000000000004	0.0065600007251717	0.013917988200015	0.0048945316608718	0.0079236519657816	0.8412235674885266	0.0016109429439333
0.6778000000000004	0.0066163613885406	0.0141291417426863	0.0049387025853665	0.0079667836994634	0.8475335575510542	0.001623875728489
0.6878000000000004	0.006668686209124	0.0143232408791178	0.0049809862267128	0.0080062257489102	0.8536294379357646	0.0016364732175017
0.6978000000000004	0.0067169780634383	0.0145006795678277	0.0050214083113165	0.0080420895832079	0.8595147732194748	0.0016487412253291
0.7078000000000004	0.0067612436892467	0.0146618623431118	0.0050599963167474	0.0080744894198588	0.8651933436949221	0.001660685889444
0.7178000000000004	0.0068014936642938	0.0148072035552013	0.0050967793974105	0.0081035420111352	0.8706691321113378	0.0016723136467907
0.7278000000000004	0.0068377423796652	0.0149371266077062	0.0051317883082499	0.0081293664298099	0.8759463100927877	0.0016836312096935
0.7378000000000005	0.0068700080078391	0.0150520631935696	0.0051650553266585	0.0081520838545771	0.8810292242720333	0.0016946455413832
0.7478000000000005	0.0068983124655211	0.0151524525307273	0.0051966141727719	0.0081718173554552	0.885922382179355	0.0017053638312109
0.7578000000000005	0.0069226813713786	0.0152387405986486	0.0052264999283212	0.0081886916794444	0.8906304379281076	0.0017157934696226
0.7678000000000005	0.0069431439988204	0.0153113793769181	0.0052547489542291	0.0082028330366967	0.8951581777409682	0.0017259420229691
0.7778000000000005	0.0069597332239857	0.0153708260870115	0.0052813988071278	0.0082143688874462	0.8995105053619599	0.0017358172082302
0.7878000000000005	0.0069724854691307	0.0154175424383943	0.0053064881549779	0.0082234277299394	0.9036924273991704	0.0017454268677268
0.7978000000000005	0.0069814406416201	0.0154519938800418	0.0053300566919679	0.0082301388896043	0.9077090386420602	0.0017547789438949
0.8078000000000005	0.0069866420687352	0.0154746488584506	0.0053521450528776	0.0082346323097003	0.9115655073959416	0.0017638814541934
0.8178000000000005	0.0069881364285115	0.0154859780831814	0.0053727947270966	0.0082370383436877	0.915267060874914	0.0017727424662142
0.8278000000000005	0.0069859736768057	0.0154864538009591	0.0053920479724939	0.0082374875495485	0.9188189706932126	0.0017813700730619
0.8378000000000005	0.0069802069707861	0.0154765490793425	0.0054099477293415	0.0082361104862709	0.922226538493345	0.0017897723690704
0.8478000000000006	0.0069708925890331	0.0154567371009766	0.0054265375344876	0.0082330375126932	0.9254950817472958	0.0017979574259155
0.8578000000000006	0.0069580898484269	0.0154274904694231	0.0054418614359685	0.0082283985888823	0.9286299197646624	0.0018059332691832
0.8678000000000006	0.0069418610179906	0.015389280527547	0.0054559639082329	0.0082223230802078	0.9316363599390708	0.001813707855445
0.8778000000000006	0.0069222712298442	0.0153425766893949	0.0054688897681408	0.0082149395642606	0.9345196842616692	0.0018212890498882
0.8878000000000006	0.0068993883874158	0.0152878457864661	0.0054806840918834	0.0082063756407609	0.9372851361277864	0.0018286846045448
0.8978000000000006	0.0068732830710513	0.0152255514292301	0.005491392132963	0.0081967577446003	0.9399379074599524	0.0018359021371559
0.9078000000000006	0.0068440284411633	0.0151561533847124	0.0055010592413557	0.0081862109621664	0.942483126167544	0.0018429491107062
0.9178000000000006	0.0068117001390658	0.0150801069709231	0.0055097307839752	0.0081748588510988	0.9449258439604435	0.001849832813657
0.9278000000000006	0.0067763761856408	0.0149978624688597	0.0055174520665424	0.0081628232636251	0.9472710245311924	0.0018565603409008
0.9378000000000006	0.0067381368779842	0.0149098645527748	0.0055242682569579	0.0081502241736212	0.9495235321171228	0.0018631385754573
0.9478000000000006	0.0066970646841624	0.0148165517393492	0.0055302243102655	0.0081371795075402	0.9516881204509412	0.0018695741709217
0.9578000000000007	0.0066532441362004	0.0147183558563717	0.0055353648952859	0.0081238049793482	0.9537694221055328	0.0018758735346742
0.9678000000000007	0.0066067617214017	0.0146157015314787	0.0055397343229939	0.0081102139295965	0.9557719382369748	0.0018820428118533
